<svg xmlns="http://www.w3.org/2000/svg" fill="none" viewBox="0 0 256 256"><path fill="url(#a)" d="m239.172 64.52-5.55-9.694a5.676 5.676 0 0 0-4.181-2.813 5.683 5.683 0 0 0-4.773 1.615l-12.676 12.675a5.715 5.715 0 0 0-.711 7.207 99.207 99.207 0 0 1 11.035 22.72 99.583 99.583 0 0 1-94.312 131.329 98.658 98.658 0 0 1-46.665-11.585l21.486-21.477a71.099 71.099 0 0 0 96.267-66.493 69.328 69.328 0 0 0-.406-7.36 70.891 70.891 0 0 0-6.702-23.63 5.7 5.7 0 0 0-6.824-2.898 5.7 5.7 0 0 0-2.284 1.375l-12.864 12.865a5.681 5.681 0 0 0-1.523 5.315l1.081 4.621a42.649 42.649 0 0 1-38.896 52.329 42.65 42.65 0 0 1-23.759-5.528l-5.658-3.244a5.686 5.686 0 0 0-6.856.901l-52.484 52.422a5.684 5.684 0 0 0 .558 8.531l7.73 5.928A126.808 126.808 0 0 0 128.004 256C198.578 256 256 198.578 256 128.004a128.031 128.031 0 0 0-16.828-63.485Z"/><path fill="url(#b)" d="M205.795 26.37A126.796 126.796 0 0 0 128.005 0C57.422 0 0 57.423 0 128.006a128.077 128.077 0 0 0 16.828 63.485l5.55 9.693a5.688 5.688 0 0 0 4.207 2.844 5.677 5.677 0 0 0 4.801-1.655l12.667-12.666a5.712 5.712 0 0 0 .711-7.207 99.583 99.583 0 0 1-11.035-22.72 99.582 99.582 0 0 1 94.276-131.338 98.648 98.648 0 0 1 46.656 11.585l-21.513 21.486a71.079 71.079 0 0 0-96.258 66.493c0 1.181.315 6.568.414 7.496a71.433 71.433 0 0 0 6.703 23.485 5.7 5.7 0 0 0 9.162 1.559l12.864-12.856a5.696 5.696 0 0 0 1.514-5.351l-1.063-4.585a43.24 43.24 0 0 1-1.135-9.748 42.63 42.63 0 0 1 63.772-37.016l5.667 3.243a5.684 5.684 0 0 0 6.847-.901l52.448-52.449a5.685 5.685 0 0 0 1.655-4.396 5.704 5.704 0 0 0-2.213-4.144l-7.73-5.973Z"/><defs><linearGradient id="a" x1="82.861" x2="263.054" y1="264.152" y2="83.96" gradientUnits="userSpaceOnUse"><stop stop-color="#B090F5"/><stop offset="1" stop-color="#5FBFFF"/></linearGradient><linearGradient id="b" x1="0" x2="215.75" y1="102.024" y2="102.024" gradientUnits="userSpaceOnUse"><stop stop-color="#68D7FA"/><stop offset="1" stop-color="#7EF1B3"/></linearGradient></defs></svg>
